<svg id="Layer_1" data-name="Layer 1" xmlns="http://www.w3.org/2000/svg" viewBox="0 0 473 66"><defs><style>.cls-1{fill:#174082;}.cls-2,.cls-3{fill:none;stroke:#174082;stroke-miterlimit:10;}.cls-2{stroke-width:1.55px;}.cls-3{stroke-width:3px;}</style></defs><title>Artboard 1</title><circle class="cls-1" cx="7.49" cy="39.89" r="3.49"/><path class="cls-1" d="M38.9,65c8.41-.9,16.54-4.5,21.69-11.41a25.11,25.11,0,0,0,4.73-12.23,80.08,80.08,0,0,1,2.13-12.41,32.49,32.49,0,0,1,7.32-13.3,3.08,3.08,0,0,0,0-4.25,3,3,0,0,0-4.24,0c-6.37,6.92-9.34,15.52-10.6,24.7-.28,2.09-.44,4.41-.74,6.07a18,18,0,0,1-2,5.57,23,23,0,0,1-1.51,2.4c-.1.15-.21.28-.31.43,0-.06.4-.48.09-.12s-.72.87-1.11,1.28a20.47,20.47,0,0,1-4.8,3.8A26.76,26.76,0,0,1,47,56.84c.51-.22-.52.21-.71.28l-.9.33A27.65,27.65,0,0,1,38.9,59a3.1,3.1,0,0,0-3,3c0,1.49,1.38,3.18,3,3Z"/><circle class="cls-2" cx="78.08" cy="51.91" r="10.08"/><path class="cls-3" d="M7.49,39.89A30.17,30.17,0,0,0,15.83,54c1.14,1.08,9.9,9.07,22.69,8,2-.17,11.72-1.24,18.61-8.92,9.12-10.16,2.56-20,11.25-33.74C70,16.7,76.5,6.47,87.58,4.4c13.6-2.54,30.87,7.84,33.93,23.85A28.84,28.84,0,0,1,111.24,56C99,65.69,84.4,60.76,83.51,60.44"/><path class="cls-1" d="M38.9,7.21c.65.07-.74-.13,0,0l.64.1c.45.08.89.16,1.33.26A28.12,28.12,0,0,1,44,8.45a24.68,24.68,0,0,1,6.77,3.67,25.31,25.31,0,0,1,2.86,2.62c.4.42.79.86,1.16,1.31l.42.51.29.38A27.77,27.77,0,0,1,58,21.23a3,3,0,1,0,5.18-3,31,31,0,0,0-24.31-17c-1.61-.2-3,1.52-3,3a3.08,3.08,0,0,0,3,3Z"/><circle class="cls-1" cx="7.49" cy="25.92" r="3.49"/><path class="cls-3" d="M8.46,22.62A30.09,30.09,0,0,1,28,4.89,29,29,0,0,1,53.35,9.26a22.81,22.81,0,0,1,8.34,11.87"/><path class="cls-1" d="M84.67,50.65c0,4.05-6,7.33-6.26,7.46a.43.43,0,0,1-.44,0c-.25-.13-6.26-3.41-6.26-7.46a3.58,3.58,0,0,1,3.59-3.58,3.55,3.55,0,0,1,2.89,1.38,3.55,3.55,0,0,1,2.89-1.38A3.58,3.58,0,0,1,84.67,50.65Z"/><path class="cls-1" d="M135.61,56.29V11.87h8.13V56.29Z"/><path class="cls-1" d="M160.61,28.6h.13A12.2,12.2,0,0,1,164.92,25a14.19,14.19,0,0,1,3-1.18,13.21,13.21,0,0,1,3.5-.45,14.73,14.73,0,0,1,3.41.4,10.23,10.23,0,0,1,3,1.25,9.07,9.07,0,0,1,2.41,2.19,10.17,10.17,0,0,1,1.64,3.2,11,11,0,0,1,.45,2.24c.08.81.12,1.75.12,2.81V56.29h-7.87V36.64c0-.87,0-1.61-.1-2.23a6.45,6.45,0,0,0-.37-1.62,4.1,4.1,0,0,0-1.81-2.2,6.08,6.08,0,0,0-2.94-.66A9.57,9.57,0,0,0,165,31a11.39,11.39,0,0,0-3.73,3.14V56.29h-7.87V24.12h6.51Z"/><path class="cls-1" d="M212.9,30.59H200.42v25.7h-7.87V30.59H187.1V24.12h5.45V21.17a14.17,14.17,0,0,1,1.29-6.33,12.38,12.38,0,0,1,3.42-4.27,14,14,0,0,1,4.87-2.42,20.83,20.83,0,0,1,5.63-.76,31.6,31.6,0,0,1,4.53.31,38.91,38.91,0,0,1,4,.78v6.24q-1.66-.36-3.57-.63a29.59,29.59,0,0,0-3.93-.26,13.49,13.49,0,0,0-3.14.35A7.5,7.5,0,0,0,203,15.34a5.7,5.7,0,0,0-1.86,2.21,7.68,7.68,0,0,0-.7,3.48v3.09h20.35V56.29H212.9Z"/><path class="cls-1" d="M236.84,28.6H237A12.2,12.2,0,0,1,241.16,25a14.31,14.31,0,0,1,3-1.18,13.29,13.29,0,0,1,3.51-.45,14.71,14.71,0,0,1,3.4.4,10.18,10.18,0,0,1,3,1.25,9,9,0,0,1,2.4,2.19,10.19,10.19,0,0,1,1.65,3.2,10.34,10.34,0,0,1,.44,2.24c.08.81.12,1.75.12,2.81V56.29h-7.87V36.64a20.35,20.35,0,0,0-.1-2.23,6.46,6.46,0,0,0-.36-1.62,4.15,4.15,0,0,0-1.81-2.2,6.08,6.08,0,0,0-2.94-.66,9.51,9.51,0,0,0-4.4,1.08,11.42,11.42,0,0,0-3.74,3.14V56.29H229.6V24.12h6.51Z"/><path class="cls-1" d="M267.52,24.12h7.87V56.29h-7.87Z"/><path class="cls-1" d="M303.88,56.26a18.86,18.86,0,0,1-3.17.63,26.7,26.7,0,0,1-3.44.23,14.47,14.47,0,0,1-6.62-1.31A7.49,7.49,0,0,1,287,52a12.21,12.21,0,0,1-.76-4.78V30.59h-6V24.12h6v-9h7.87v9h9.3v6.47h-9.3V46.23a5.38,5.38,0,0,0,.56,2.76c.67,1,2,1.53,3.95,1.53a17.58,17.58,0,0,0,2.71-.22,22.67,22.67,0,0,0,2.54-.55Z"/><path class="cls-1" d="M326.59,50.78a26,26,0,0,0,4.78-.46A38.12,38.12,0,0,0,336.42,49v6.27a23.14,23.14,0,0,1-4.68,1.27,35.91,35.91,0,0,1-6.54.59,23.29,23.29,0,0,1-6.49-.88,14.13,14.13,0,0,1-5.37-2.83,13.7,13.7,0,0,1-3.63-5.08,19.1,19.1,0,0,1-1.35-7.58,21.41,21.41,0,0,1,1.26-7.67A15.55,15.55,0,0,1,313,27.64a14,14,0,0,1,4.87-3.24,15.26,15.26,0,0,1,5.66-1.08,16.4,16.4,0,0,1,5.62.93,11.36,11.36,0,0,1,4.45,2.92,13.74,13.74,0,0,1,2.93,5.13,23.84,23.84,0,0,1,1,7.43c0,1.1-.05,2-.1,2.82H316.4a9.69,9.69,0,0,0,1,3.8,7.46,7.46,0,0,0,2.18,2.56,8.76,8.76,0,0,0,3.14,1.42A15.89,15.89,0,0,0,326.59,50.78Zm-3.15-21.31a6.23,6.23,0,0,0-2.66.54,6.34,6.34,0,0,0-2,1.5,7.34,7.34,0,0,0-1.34,2.21,10.2,10.2,0,0,0-.67,2.69h12.65a9,9,0,0,0-.38-2.69,6.51,6.51,0,0,0-1.13-2.21A5.46,5.46,0,0,0,326,30,5.89,5.89,0,0,0,323.44,29.47Z"/><path class="cls-1" d="M367.5,17.91a16.7,16.7,0,0,0-6.13,1.1,13.31,13.31,0,0,0-4.81,3.18,14.63,14.63,0,0,0-3.14,5.17,20.35,20.35,0,0,0-1.13,7,20.94,20.94,0,0,0,1,6.89,13.16,13.16,0,0,0,2.95,5,12.38,12.38,0,0,0,4.7,3,18.4,18.4,0,0,0,6.29,1,33.67,33.67,0,0,0,5.15-.4,29,29,0,0,0,4.92-1.16v7a37.33,37.33,0,0,1-5,1,38.81,38.81,0,0,1-5.58.38,27.93,27.93,0,0,1-9.92-1.61A19.25,19.25,0,0,1,349.65,51a19,19,0,0,1-4.32-7,27.18,27.18,0,0,1-1.44-9,28,28,0,0,1,1.54-9.43,22.12,22.12,0,0,1,4.45-7.54,20.35,20.35,0,0,1,7.27-5A25.73,25.73,0,0,1,367,11a36.41,36.41,0,0,1,5.35.38,25.12,25.12,0,0,1,4.55,1.08v6.91a30.23,30.23,0,0,0-9.43-1.5Z"/><path class="cls-1" d="M403.56,52.87h-.14a14.85,14.85,0,0,1-3.72,2.81,12.62,12.62,0,0,1-2.65,1,12.27,12.27,0,0,1-3.16.39,12.52,12.52,0,0,1-4.28-.71,9.66,9.66,0,0,1-3.42-2.06A9.49,9.49,0,0,1,384,51.1a10.83,10.83,0,0,1-.81-4.27,11,11,0,0,1,.94-4.65,9.87,9.87,0,0,1,2.64-3.48,11.6,11.6,0,0,1,4-2.18,17.14,17.14,0,0,1,5.22-.75,25.56,25.56,0,0,1,3.85.27,28.09,28.09,0,0,1,3.08.63V35.38a6.18,6.18,0,0,0-.38-2.18,4.73,4.73,0,0,0-1.23-1.86,6,6,0,0,0-2.2-1.29,10.08,10.08,0,0,0-3.32-.48,21.7,21.7,0,0,0-4.79.53,36.4,36.4,0,0,0-5.17,1.59V25.55A25.91,25.91,0,0,1,391,23.92a30.09,30.09,0,0,1,5.71-.6,19.69,19.69,0,0,1,6.16.87,12.86,12.86,0,0,1,4.42,2.37,9.59,9.59,0,0,1,2.65,3.57,11.23,11.23,0,0,1,.88,4.48V46.73c0,2.13,0,4,.07,5.48s.09,2.89.13,4.08h-7.1Zm-.64-10.29c-.75-.18-1.61-.34-2.59-.48a20.59,20.59,0,0,0-2.95-.22A8,8,0,0,0,392.81,43a4,4,0,0,0-1.67,3.5,4.37,4.37,0,0,0,.38,1.91,3.86,3.86,0,0,0,1,1.35,4.27,4.27,0,0,0,1.51.79,6,6,0,0,0,1.83.27,7.89,7.89,0,0,0,2.25-.32,10.42,10.42,0,0,0,2-.79,9,9,0,0,0,1.61-1.08,11.38,11.38,0,0,0,1.21-1.16Z"/><path class="cls-1" d="M438.75,30.36h-.66a17.22,17.22,0,0,0-6.36,1.08,8.76,8.76,0,0,0-4.23,3.31V56.29h-7.87V24.12h6.5l.73,4.48H427a10.31,10.31,0,0,1,3.83-3.87,11.53,11.53,0,0,1,5.86-1.41,13.51,13.51,0,0,1,2.06.14Z"/><path class="cls-1" d="M460,50.78a26,26,0,0,0,4.78-.46A38.12,38.12,0,0,0,469.8,49v6.27a23.08,23.08,0,0,1-4.69,1.27,35.75,35.75,0,0,1-6.54.59,23.34,23.34,0,0,1-6.49-.88,14.09,14.09,0,0,1-5.36-2.83,13.72,13.72,0,0,1-3.64-5.08,19.29,19.29,0,0,1-1.34-7.58A21.41,21.41,0,0,1,443,33.08a15.55,15.55,0,0,1,3.39-5.44,13.91,13.91,0,0,1,4.86-3.24,15.3,15.3,0,0,1,5.66-1.08,16.42,16.42,0,0,1,5.63.93A11.36,11.36,0,0,1,467,27.17a13.73,13.73,0,0,1,2.92,5.13,23.53,23.53,0,0,1,1,7.43c0,1.1-.06,2-.1,2.82H449.77a9.69,9.69,0,0,0,1,3.8A7.35,7.35,0,0,0,453,48.91a8.79,8.79,0,0,0,3.13,1.42A16,16,0,0,0,460,50.78Zm-3.16-21.31a6,6,0,0,0-4.66,2,7.37,7.37,0,0,0-1.35,2.21,10.6,10.6,0,0,0-.66,2.69h12.65a9.35,9.35,0,0,0-.38-2.69,6.69,6.69,0,0,0-1.13-2.21,5.46,5.46,0,0,0-1.86-1.5A5.9,5.9,0,0,0,456.81,29.47Z"/><path class="cls-1" d="M276.31,15.08c0,3.19-4.73,5.77-4.93,5.88a.43.43,0,0,1-.35,0c-.2-.11-4.92-2.69-4.92-5.88a2.86,2.86,0,0,1,5.1-1.73,2.79,2.79,0,0,1,2.27-1.09A2.84,2.84,0,0,1,276.31,15.08Z"/></svg>