<svg id="Layer_1" data-name="Layer 1" xmlns="http://www.w3.org/2000/svg" viewBox="0 0 500 500"><defs><style>.cls-1{fill:#fff;}.cls-2{fill:#174082;}.cls-3,.cls-4{fill:none;stroke:#174082;stroke-miterlimit:10;}.cls-3{stroke-width:5.19px;}.cls-4{stroke-width:10.03px;}</style></defs><title>Artboard 1</title><circle class="cls-1" cx="249.5" cy="252.5" r="234.5"/><circle class="cls-2" cx="62.97" cy="273.18" r="11.68"/><path class="cls-2" d="M168.05,357.16A115.41,115.41,0,0,0,195.9,351a108,108,0,0,0,21-9.92,86.81,86.81,0,0,0,36.53-47.1c3.15-10.15,3.4-21,4.8-31.46l-.35,2.67c2.05-15.07,5.18-30,11.09-44.1l-1,2.4a116.09,116.09,0,0,1,14.81-25.34l-1.57,2q3.25-4.19,6.85-8.08A10.53,10.53,0,0,0,291,185a10.22,10.22,0,0,0-2.94-7.09,10,10,0,0,0-14.19,0,123.49,123.49,0,0,0-23,35,153.2,153.2,0,0,0-8.17,24.24c-1.47,6.08-2.58,12.24-3.51,18.43-1.21,8.06-1.9,16.18-3,24.26l.36-2.67a68.83,68.83,0,0,1-4.64,17.44l1-2.39a79.93,79.93,0,0,1-10.17,17.44l1.57-2a75.88,75.88,0,0,1-13.51,13.47l2-1.57a86.32,86.32,0,0,1-19.05,11l2.4-1a108.61,108.61,0,0,1-27.43,7.63l2.67-.36c-1.1.14-2.21.27-3.31.38-2.73.28-5.09.94-7.1,2.94a10,10,0,0,0,0,14.19c1.85,1.7,4.49,3.21,7.1,2.94Z"/><circle class="cls-3" cx="299.07" cy="313.4" r="33.73"/><path class="cls-4" d="M63,273.18a100.82,100.82,0,0,0,27.89,47.35c3.8,3.6,33.11,30.34,75.89,26.6,6.71-.59,39.23-4.15,62.27-29.84,30.5-34,8.54-66.78,37.62-112.87,5.55-8.79,27.15-43,64.22-49.94,45.51-8.5,103.27,26.24,113.51,79.78,6.13,32.06-5,69.43-34.38,92.76-40.9,32.48-89.78,16-92.75,14.92"/><path class="cls-2" d="M168.05,163.86l1.49.19-2.66-.35a94.06,94.06,0,0,1,23.63,6.44l-2.4-1a93.77,93.77,0,0,1,20.73,12.1l-2-1.57a93.87,93.87,0,0,1,16.48,16.49l-1.56-2A94.42,94.42,0,0,1,232,210.79a10.14,10.14,0,0,0,6,4.61,10.28,10.28,0,0,0,7.73-1,10.12,10.12,0,0,0,4.61-6,11.17,11.17,0,0,0-1-7.73A101.84,101.84,0,0,0,230,173.44a103.29,103.29,0,0,0-42.41-25.67,108.54,108.54,0,0,0-19.54-4c-2.38-.28-5.48,1.33-7.1,2.94a10,10,0,0,0,0,14.2l2,1.56a10,10,0,0,0,5.07,1.37Z"/><circle class="cls-2" cx="62.97" cy="226.48" r="11.68"/><path class="cls-4" d="M66.22,215.41c10.79-28.69,36.26-50.68,65.43-59.31,28.5-8.43,60.81-3.29,84.7,14.62a76.21,76.21,0,0,1,27.9,39.72"/><path class="cls-2" d="M321.13,309.19c0,13.55-20.09,24.51-20.94,25a1.53,1.53,0,0,1-1.47,0c-.85-.45-20.94-11.41-20.94-25a12,12,0,0,1,12-12,11.89,11.89,0,0,1,9.68,4.63,11.88,11.88,0,0,1,9.67-4.63A12,12,0,0,1,321.13,309.19Z"/></svg>